<?xml version="1.0" encoding="UTF-8"?><svg xmlns="http://www.w3.org/2000/svg" xmlns:xlink="http://www.w3.org/1999/xlink" version="1.1" id="Layer_1" x="0px" y="0px" viewBox="0 0 40 40" xml:space="preserve"><path d="M28.229 29.396a12.547 12.547 0 0 0 3.438-4.968c.187-.491.321-.905.423-1.303l.16-.625H20.5v-6h17.662c.225 1.167.338 2.343.338 3.5 0 5.005-2.069 9.834-5.692 13.32l-4.579-3.924z" fill="#8BB7F0"/><path d="M37.744 17c.17 1.002.256 2.008.256 3 0 4.719-1.891 9.277-5.216 12.641l-3.802-3.259a13.065 13.065 0 0 0 3.153-4.777c.192-.506.332-.937.44-1.355l.322-1.25H21v-5h16.744m.826-1H20v7h11.607c-.11.428-.252.842-.406 1.25a12.047 12.047 0 0 1-3.744 5.141l5.367 4.6C36.611 30.518 39 25.544 39 20c0-1.373-.153-2.709-.43-4z" fill="#4E7AB5"/><path d="M32.828 22a12.981 12.981 0 0 1-4.594 8.058l3.825 3.278c3.175-2.873 5.329-6.852 5.828-11.336h-5.059z" fill="#8BB7F0"/><path d="M20 38.5c-6.903 0-13.128-3.773-16.349-9.877l4.957-3.499A12.414 12.414 0 0 0 20 32.5c2.713 0 5.277-.851 7.439-2.465l4.624 3.963A18.423 18.423 0 0 1 20 38.5z" fill="#BAE0BD"/><path d="M8.411 25.875A12.906 12.906 0 0 0 20 33c2.688 0 5.234-.803 7.413-2.329l3.876 3.322A17.913 17.913 0 0 1 20 38c-6.57 0-12.509-3.513-15.697-9.225l4.108-2.9m.417-1.518l-5.82 4.108C6.123 34.704 12.552 39 20 39c4.949 0 9.442-1.908 12.823-5.009l-5.367-4.6A11.908 11.908 0 0 1 20 32c-5.089 0-9.427-3.173-11.172-7.643z" fill="#5E9C76"/><path d="M28.234 30.058A12.943 12.943 0 0 1 20 33c-5.407 0-10.041-3.303-12-8l-4.13 2.95C6.807 33.899 12.917 38 20 38c4.645 0 8.866-1.775 12.059-4.664l-3.825-3.278z" fill="#BAE0BD"/><path d="M3.891 10.907A18.483 18.483 0 0 1 20 1.5c4.493 0 8.8 1.632 12.186 4.607l-4.212 4.212C25.757 8.498 22.944 7.5 20 7.5a12.47 12.47 0 0 0-11.271 7.093l-4.838-3.686z" fill="#F78F8F"/><path d="M20 2a17.91 17.91 0 0 1 11.449 4.136l-3.515 3.515C25.688 7.935 22.905 7 20 7a12.967 12.967 0 0 0-11.445 6.832l-4.01-3.055A17.981 17.981 0 0 1 20 2m0-1C12.746 1 6.446 5.068 3.245 11.044l5.682 4.329C10.738 11.043 15.013 8 20 8c3.059 0 5.881 1.116 8 3l4.911-4.911C29.52 2.94 24.992 1 20 1z" fill="#C74343"/><path d="M20 7V2C13.07 2 7.064 5.922 4.056 11.662l4.056 3.09C10.13 10.189 14.689 7 20 7z" fill="#F78F8F"/><g><path d="M3.235 27.789A18.254 18.254 0 0 1 1.5 20c0-2.838.661-5.66 1.917-8.197l4.905 3.737A12.407 12.407 0 0 0 7.5 20c0 1.435.249 2.851.74 4.214l-5.005 3.575z" fill="#FFEEA3"/><path d="M3.604 12.574l4.121 3.14a12.939 12.939 0 0 0-.079 8.31l-4.204 3.003A17.725 17.725 0 0 1 2 20c0-2.559.552-5.103 1.604-7.426m-.359-1.53A18.904 18.904 0 0 0 1 20c0 3.075.747 5.97 2.044 8.54l5.799-4.142a11.948 11.948 0 0 1 .084-9.025l-5.682-4.329z" fill="#BA9B48"/></g><g><path d="M7 20c0-1.869.402-3.642 1.112-5.248l-4.056-3.09A17.907 17.907 0 0 0 2 20c0 2.858.684 5.55 1.869 7.951L8 25a12.94 12.94 0 0 1-1-5z" fill="#FFEEA3"/></g><metadata><rdf:RDF xmlns:rdf="http://www.w3.org/1999/02/22-rdf-syntax-ns#" xmlns:rdfs="http://www.w3.org/2000/01/rdf-schema#" xmlns:dc="http://purl.org/dc/elements/1.1/"><rdf:Description about="https://iconscout.com/legal#licenses" dc:title="google" dc:description="google" dc:publisher="Iconscout" dc:date="2018-01-02" dc:format="image/svg+xml" dc:language="en"><dc:creator><rdf:Bag><rdf:li>Icons8</rdf:li></rdf:Bag></dc:creator></rdf:Description></rdf:RDF></metadata></svg>