<?xml version="1.0" encoding="UTF-8"?><svg xmlns="http://www.w3.org/2000/svg" xmlns:xlink="http://www.w3.org/1999/xlink" version="1.1" id="Layer_1" x="0px" y="0px" viewBox="0 0 40 40" xml:space="preserve"><path fill="#8BB7F0" d="M2.5 2.5h35v35h-35z"/><path d="M37 3v34H3V3h34m1-1H2v36h36V2z" fill="#4E7AB5"/><path fill="#FFF" d="M8 16.077h5.538V32H8z"/><path d="M10.769 14.462C9.108 14.462 8 13.285 8 11.831s1.108-2.562 2.769-2.562 2.7 1.108 2.769 2.562c0 1.454-1.038 2.631-2.769 2.631z" fill="#FFF"/><path d="M32.027 32h-5.468v-8.885c0-.615-.068-2.734-2.392-2.734-2.05 0-2.392 1.982-2.392 2.734V32h-5.468V16.281h5.468V18.4s1.094-2.119 4.306-2.119c3.281 0 5.946 2.255 5.946 6.834V32z" fill="#FFF"/><metadata><rdf:RDF xmlns:rdf="http://www.w3.org/1999/02/22-rdf-syntax-ns#" xmlns:rdfs="http://www.w3.org/2000/01/rdf-schema#" xmlns:dc="http://purl.org/dc/elements/1.1/"><rdf:Description about="https://iconscout.com/legal#licenses" dc:title="linkedin" dc:description="linkedin" dc:publisher="Iconscout" dc:date="2018-01-02" dc:format="image/svg+xml" dc:language="en"><dc:creator><rdf:Bag><rdf:li>Icons8</rdf:li></rdf:Bag></dc:creator></rdf:Description></rdf:RDF></metadata></svg>