<?xml version="1.0" encoding="UTF-8"?><svg xmlns="http://www.w3.org/2000/svg" xmlns:xlink="http://www.w3.org/1999/xlink" version="1.1" id="Layer_1" x="0px" y="0px" viewBox="0 0 40 40" xml:space="preserve"><path d="M20 38.5C9.799 38.5 1.5 30.201 1.5 20S9.799 1.5 20 1.5 38.5 9.799 38.5 20 30.201 38.5 20 38.5z" fill="#F78F8F"/><path d="M20 2c9.925 0 18 8.075 18 18s-8.075 18-18 18S2 29.925 2 20 10.075 2 20 2m0-1C9.507 1 1 9.507 1 20s8.507 19 19 19 19-8.507 19-19S30.493 1 20 1z" fill="#C74343"/><path d="M20.053 9C12.389 9 8.319 14.144 8.319 19.746c0 2.604 1.386 5.847 3.604 6.88.336.156.516.088.594-.237.059-.247.358-1.453.493-2.014a.531.531 0 0 0-.123-.509c-.734-.89-1.322-2.526-1.322-4.052 0-3.917 2.966-7.706 8.018-7.706 4.363 0 7.418 2.973 7.418 7.225 0 4.804-2.426 8.132-5.582 8.132-1.743 0-3.048-1.442-2.63-3.209.501-2.111 1.471-4.389 1.471-5.912 0-1.364-.732-2.501-2.247-2.501-1.782 0-3.213 1.843-3.213 4.313 0 1.573.531 2.636.531 2.636s-1.76 7.441-2.082 8.827c-.353 1.516-.22 3.634-.067 5.039.405.166.818.316 1.238.453.724-1.182 1.791-3.094 2.188-4.624.216-.831 1.106-4.221 1.106-4.221.579 1.104 2.271 2.039 4.07 2.039 5.356 0 9.215-4.925 9.215-11.046C31 13.389 26.213 9 20.053 9z" fill="#FFF"/><metadata><rdf:RDF xmlns:rdf="http://www.w3.org/1999/02/22-rdf-syntax-ns#" xmlns:rdfs="http://www.w3.org/2000/01/rdf-schema#" xmlns:dc="http://purl.org/dc/elements/1.1/"><rdf:Description about="https://iconscout.com/legal#licenses" dc:title="pinterest" dc:description="pinterest" dc:publisher="Iconscout" dc:date="2018-01-02" dc:format="image/svg+xml" dc:language="en"><dc:creator><rdf:Bag><rdf:li>Icons8</rdf:li></rdf:Bag></dc:creator></rdf:Description></rdf:RDF></metadata></svg>