<?xml version="1.0" encoding="UTF-8"?><svg xmlns="http://www.w3.org/2000/svg" xmlns:xlink="http://www.w3.org/1999/xlink" version="1.1" id="Layer_1" x="0px" y="0px" viewBox="0 0 40 40" xml:space="preserve"><path d="M4.342 21.046a2.843 2.843 0 0 1-.933-5.526l27.305-9.496a2.844 2.844 0 0 1 3.491 3.921 2.823 2.823 0 0 1-1.624 1.446L5.275 20.888a2.835 2.835 0 0 1-.933.158z" fill="#8CD3DF"/><path d="M31.647 6.366c.995 0 1.884.632 2.211 1.573a2.344 2.344 0 0 1-1.442 2.98L5.111 20.416a2.343 2.343 0 0 1-2.98-1.442 2.344 2.344 0 0 1 1.442-2.98l27.305-9.496c.249-.088.508-.132.769-.132m0-1c-.364 0-.734.06-1.098.186L3.245 15.048a3.343 3.343 0 1 0 2.196 6.312l27.305-9.496a3.34 3.34 0 0 0-1.099-6.498z" fill="#5F9099"/><path d="M8.353 34.134a2.844 2.844 0 0 1-2.557-4.08 2.823 2.823 0 0 1 1.624-1.446l27.305-9.496a2.84 2.84 0 0 1 3.491 3.922 2.823 2.823 0 0 1-1.624 1.446L9.286 33.975a2.84 2.84 0 0 1-.933.159z" fill="#DD215A"/><path d="M35.658 19.454c.995 0 1.884.632 2.211 1.573a2.344 2.344 0 0 1-1.442 2.98L9.122 33.503a2.343 2.343 0 0 1-2.98-1.442 2.344 2.344 0 0 1 1.442-2.98l27.305-9.496c.249-.087.508-.131.769-.131m0-1c-.364 0-.734.06-1.098.186L7.256 28.136a3.343 3.343 0 1 0 2.196 6.312l27.305-9.496a3.342 3.342 0 1 0-1.099-6.498z" fill="#A81945"/><path d="M31.291 34.489a2.843 2.843 0 0 1-2.683-1.909L19.112 5.276A2.844 2.844 0 0 1 21.796 1.5c1.208 0 2.287.767 2.684 1.909l9.495 27.304c.25.717.205 1.488-.126 2.171a2.823 2.823 0 0 1-1.624 1.446 2.82 2.82 0 0 1-.934.159z" fill="#EBB23D"/><path d="M21.796 2c.995 0 1.884.632 2.211 1.573l9.496 27.305a2.344 2.344 0 0 1-2.211 3.111 2.343 2.343 0 0 1-2.211-1.573L19.584 5.111a2.325 2.325 0 0 1 .104-1.789 2.327 2.327 0 0 1 1.339-1.192c.249-.086.508-.13.769-.13m0-1a3.34 3.34 0 0 0-3.156 4.439l9.496 27.305a3.343 3.343 0 0 0 4.254 2.059 3.34 3.34 0 0 0 2.058-4.253L24.952 3.245A3.343 3.343 0 0 0 21.796 1z" fill="#B58A2F"/><path transform="matrix(0.9445 -0.3285 0.3285 0.9445 -6.3586 10.7733)" fill="#CD171D" d="M25.865 21.365h5.683v5.682h-5.683z"/><path d="M30.149 21.226l1.538 4.423-4.423 1.538-1.538-4.423 4.423-1.538m.616-1.273l-6.312 2.195 2.195 6.312 6.312-2.195-2.195-6.312z" fill="#9C1116"/><path transform="matrix(0.9445 -0.3285 0.3285 0.9445 -2.3639 8.5804)" fill="#7F9331" d="M21.372 8.446h5.682v5.682h-5.682z"/><path d="M25.656 8.306l1.538 4.423-4.423 1.538-1.538-4.423 4.423-1.538m.616-1.273L19.96 9.228l2.195 6.312 6.312-2.195-2.195-6.312z" fill="#657527"/><g><path d="M18.204 38.5a2.844 2.844 0 0 1-2.684-1.909L6.025 9.287a2.82 2.82 0 0 1 .126-2.172 2.823 2.823 0 0 1 1.624-1.446 2.843 2.843 0 0 1 3.617 1.75l9.496 27.305a2.844 2.844 0 0 1-2.684 3.776z" fill="#66C1A0"/><path d="M8.709 6.011c.995 0 1.884.632 2.211 1.573l9.496 27.305A2.344 2.344 0 0 1 18.204 38a2.343 2.343 0 0 1-2.211-1.573L6.497 9.122a2.33 2.33 0 0 1 .104-1.789A2.322 2.322 0 0 1 7.94 6.142c.249-.087.508-.131.769-.131m0-1A3.34 3.34 0 0 0 5.553 9.45l9.496 27.305a3.343 3.343 0 0 0 4.254 2.059 3.34 3.34 0 0 0 2.058-4.253L11.864 7.256a3.34 3.34 0 0 0-3.155-2.245z" fill="#4E917A"/></g><g><path transform="matrix(0.9445 -0.3285 0.3285 0.9445 -8.5538 6.7789)" fill="#852759" d="M12.945 25.865h5.682v5.682h-5.682z"/><path d="M17.229 25.726l1.538 4.423-4.423 1.538-1.538-4.423 4.423-1.538m.616-1.273l-6.312 2.195 2.195 6.312 6.312-2.195-2.195-6.312z" fill="#551537"/></g><g><path transform="matrix(0.9445 -0.3284 0.3284 0.9445 -4.5585 4.5851)" fill="#3BA08D" d="M8.452 12.946h5.683v5.682H8.452z"/><path d="M12.736 12.806l1.538 4.423-4.423 1.538-1.538-4.423 4.423-1.538m.616-1.273L7.04 13.728l2.195 6.312 6.312-2.195-2.195-6.312z" fill="#318575"/></g><metadata><rdf:RDF xmlns:rdf="http://www.w3.org/1999/02/22-rdf-syntax-ns#" xmlns:rdfs="http://www.w3.org/2000/01/rdf-schema#" xmlns:dc="http://purl.org/dc/elements/1.1/"><rdf:Description about="https://iconscout.com/legal#licenses" dc:title="slack" dc:description="slack" dc:publisher="Iconscout" dc:date="2018-01-02" dc:format="image/svg+xml" dc:language="en"><dc:creator><rdf:Bag><rdf:li>Icons8</rdf:li></rdf:Bag></dc:creator></rdf:Description></rdf:RDF></metadata></svg>