<svg xmlns="http://www.w3.org/2000/svg" enable-background="new 0 0 24 24" viewBox="0 0 24 24"><polygon fill="#77B900" points="8.948 14.408 8.948 14.408 8.949 14.409"/><rect width="13.5" height="14.5" x="9.75" y="4.75" fill="#77B900"/><path d="M9.326,17.954c-0.021,0-0.043-0.001-0.065-0.003c-6.717-0.577-9.113-6.736-9.213-6.998c-0.108-0.29-0.029-0.617,0.201-0.823C0.42,9.977,4.476,6.387,9.277,6.03c0.412-0.026,0.773,0.28,0.804,0.692c0.03,0.413-0.279,0.773-0.692,0.804c-3.463,0.257-6.62,2.507-7.724,3.378c0.662,1.365,2.915,5.139,7.725,5.552c0.412,0.035,0.718,0.398,0.683,0.811C10.039,17.659,9.711,17.954,9.326,17.954z"/><path d="M9.326,15.711c-0.04,0-0.081-0.003-0.122-0.01c-3.927-0.644-5.032-4.292-5.077-4.446c-0.076-0.261-0.005-0.543,0.186-0.737c0.076-0.077,1.881-1.874,4.865-2.198c0.017-0.002,0.033-0.005,0.05-0.006C9.259,8.312,9.292,8.31,9.322,8.31c0.375,0,0.697,0.28,0.743,0.66c0.047,0.384-0.206,0.738-0.578,0.822c-0.029,0.007-0.06,0.012-0.091,0.015c-1.794,0.18-3.077,1.008-3.662,1.463c0.37,0.828,1.411,2.575,3.712,2.952c0.409,0.067,0.686,0.453,0.619,0.861C10.005,15.45,9.687,15.711,9.326,15.711z"/><path d="M13.922 11.492c-.215 0-.428-.092-.576-.27-.01-.012-1.253-1.444-3.258-1.444L9.96 9.776c-.188 0-.374.01-.558.029-.42.039-.78-.257-.823-.669-.042-.412.258-.78.669-.823C9.482 8.29 9.719 8.276 9.96 8.276l.147.002c2.704 0 4.323 1.902 4.391 1.983.265.318.223.791-.096 1.056C14.262 11.435 14.092 11.492 13.922 11.492zM10.273 18c-.348 0-.677-.017-1.006-.05-.412-.042-.713-.409-.671-.821s.418-.712.821-.671c3.398.341 7.926-1.551 10.375-3.432.33-.253.8-.19 1.052.138.252.329.19.799-.138 1.052C18.334 16.038 14.058 18 10.273 18z"/><path d="M10.384,15.789c-0.382,0-0.763-0.031-1.167-0.095c-0.409-0.064-0.688-0.448-0.624-0.857c0.065-0.41,0.45-0.69,0.858-0.624c0.325,0.051,0.63,0.076,0.933,0.076c2.9,0,5.812-2.521,6.939-3.615c-1.061-1.021-3.812-3.289-7.568-3.17L9.368,7.527c-0.42,0.019-0.768-0.292-0.792-0.706C8.553,6.408,8.868,6.053,9.282,6.03l0.406-0.023c5.513-0.18,9.105,4.015,9.255,4.193c0.238,0.286,0.23,0.704-0.018,0.981C18.757,11.369,14.741,15.789,10.384,15.789z"/><path d="M23.25,20H9.75C9.336,20,9,19.664,9,19.25V4.75C9,4.336,9.336,4,9.75,4h13.5C23.664,4,24,4.336,24,4.75v14.5C24,19.664,23.664,20,23.25,20z M10.5,18.5h12v-13h-12V18.5z"/></svg>