<svg xmlns="http://www.w3.org/2000/svg" enable-background="new 0 0 24 24" viewBox="0 0 24 24"><linearGradient id="a" x1="18.882" x2="18.882" y1="21.152" y2="2.73" gradientUnits="userSpaceOnUse"><stop offset="0" stop-color="#9c0000"/><stop offset=".7" stop-color="#ff4b4b"/></linearGradient><path fill="url(#a)" d="M18.371,12.009c0,3.842-1.619,7.087-3.857,8.205l4.296,1.097c0.315-0.17,0.622-0.361,0.915-0.577c2.163-2.156,3.525-5.272,3.525-8.735c0-3.463-1.362-6.578-3.525-8.716c-0.333-0.246-0.683-0.457-1.043-0.643l-3.899,1.315C16.88,5.193,18.371,8.324,18.371,12.009z"/><linearGradient id="b" x1="9.61" x2="9.61" y1="19.551" y2="18.611" gradientUnits="userSpaceOnUse"><stop offset="0" stop-color="#9c0000"/><stop offset=".7" stop-color="#ff4b4b"/></linearGradient><path fill="url(#b)" d="M10.012,19.475c-0.284-0.254-0.553-0.545-0.804-0.869c0.238,0.34,0.499,0.654,0.771,0.953L10.012,19.475z"/><linearGradient id="c" x1="6.667" x2="6.667" y1="23.609" y2=".349" gradientUnits="userSpaceOnUse"><stop offset=".3" stop-color="#ff1b2d"/><stop offset=".438" stop-color="#fa1a2c"/><stop offset=".594" stop-color="#ed1528"/><stop offset=".758" stop-color="#d60e21"/><stop offset=".927" stop-color="#b70519"/><stop offset="1" stop-color="#a70014"/></linearGradient><path fill="url(#c)" d="M13.333,21.765c-2.089-0.341-3.96-1.282-5.28-3.005c-1.331-1.566-2.184-3.881-2.241-6.478v-0.562c0.056-2.597,0.919-4.913,2.241-6.478c1.345-1.739,3.182-2.723,5.28-3.077V0.079C12.91,0.032,12.482,0.001,12.047,0H12C5.372,0,0,5.372,0,12c0,6.431,5.062,11.691,11.428,11.991C11.616,24,11.812,24,12,24c0.451,0,0.895-0.032,1.333-0.081V21.765z"/><path d="M12,24C5.383,24,0,18.617,0,12S5.383,0,12,0c1.993,0,3.964,0.499,5.699,1.441c0.341,0.186,0.484,0.6,0.331,0.957c-0.154,0.356-0.555,0.537-0.923,0.415c-0.675-0.222-1.406-0.334-2.172-0.334c-4.711,0-8.543,4.271-8.543,9.522s3.833,9.522,8.543,9.522c0.767,0,1.498-0.112,2.172-0.334c0.368-0.121,0.769,0.059,0.923,0.415c0.154,0.356,0.011,0.771-0.331,0.957C15.964,23.501,13.993,24,12,24z M11.875,1.5C6.143,1.568,1.5,6.252,1.5,12s4.643,10.432,10.375,10.5C7.829,21.076,4.891,16.907,4.891,12S7.829,2.924,11.875,1.5z"/><path d="M18.34,22.034c-0.24,0-0.476-0.115-0.621-0.328c-0.233-0.343-0.144-0.809,0.198-1.042C20.787,18.712,22.5,15.474,22.5,12s-1.713-6.712-4.583-8.664c-0.342-0.233-0.431-0.699-0.198-1.042s0.699-0.431,1.042-0.198C22.042,4.327,24,8.029,24,12s-1.958,7.673-5.239,9.904C18.632,21.992,18.485,22.034,18.34,22.034z"/><g><path d="M14.994,21.212c-0.211,0-0.421-0.088-0.569-0.261c-0.27-0.314-0.234-0.788,0.08-1.058c1.973-1.695,3.104-4.572,3.104-7.893s-1.131-6.198-3.104-7.893c-0.314-0.27-0.35-0.743-0.08-1.058c0.27-0.314,0.742-0.351,1.058-0.08c2.305,1.98,3.626,5.271,3.626,9.031s-1.322,7.051-3.626,9.031C15.341,21.152,15.167,21.212,14.994,21.212z"/></g><g><path d="M18.34,22.034c-0.014,0-0.029,0-0.044-0.001c-1.27-0.073-2.486-0.372-3.614-0.888c-0.376-0.172-0.542-0.618-0.37-0.994s0.618-0.542,0.994-0.37c0.958,0.438,1.994,0.692,3.077,0.755c0.413,0.023,0.729,0.378,0.705,0.792C19.065,21.726,18.734,22.034,18.34,22.034z"/></g><g><path d="M14.994,4.288c-0.285,0-0.557-0.163-0.683-0.438c-0.172-0.376-0.006-0.822,0.37-0.994c1.128-0.516,2.345-0.815,3.614-0.888c0.432-0.035,0.768,0.292,0.792,0.705c0.024,0.414-0.292,0.769-0.705,0.792c-1.083,0.063-2.119,0.317-3.077,0.755C15.205,4.267,15.099,4.288,14.994,4.288z"/></g></svg>