<svg xmlns="http://www.w3.org/2000/svg" enable-background="new 0 0 24 24" viewBox="0 0 24 24"><path fill="#CC2229" d="M8.959,2.722l0.036,16.889l3.967,1.216L12.926,6.785c0-0.384,0-0.32,0,0.48v5.823c1.216,0.576,3.657,0.257,4.456-0.351c0.832-0.576,1.462-1.217,1.462-2.752c0-1.6-0.32-2.815-1.024-3.615c-0.64-0.864-1.76-1.568-3.423-2.143C12.222,3.522,10.398,3.01,8.959,2.722L8.959,2.722z"/><path d="M12.922,21.5c-0.077,0-0.155-0.012-0.23-0.036l-3.732-1.207c-0.31-0.101-0.52-0.389-0.52-0.714V2.75c0-0.223,0.099-0.434,0.271-0.576C8.881,2.031,9.106,1.97,9.325,2.013C11.1,2.34,13.61,3.11,14.69,3.473c3.579,1.222,4.846,2.867,4.846,6.29c0,1.309-0.544,2.392-1.573,3.133c-1.114,0.802-2.74,1.114-4.291,0.866v6.988c0,0.24-0.115,0.465-0.309,0.606C13.233,21.451,13.078,21.5,12.922,21.5z M9.939,18.997l2.232,0.722v-6.893c0-0.012,0-0.023,0-0.035V6.662c0-0.414,0.336-0.75,0.75-0.75s0.75,0.336,0.75,0.75v5.574c1.226,0.263,2.567,0.052,3.414-0.558c0.631-0.454,0.95-1.099,0.95-1.916c0-2.764-0.858-3.856-3.826-4.869c-0.87-0.292-2.704-0.859-4.271-1.221V18.997z"/><path d="M15.054 20.395c-.318 0-.613-.203-.715-.522-.125-.395.093-.816.487-.942 1.576-.502 5.876-1.908 6.826-2.379.463-.229.682-.403.782-.502-.184-.136-.646-.371-1.562-.561-1.712-.355-4.243.602-5.458 1.062l-.373.14c-.386.143-.819-.057-.962-.446-.143-.389.057-.819.446-.962l.357-.135c1.451-.549 4.149-1.571 6.294-1.127 1.755.363 2.702.985 2.812 1.849.146 1.127-1.222 1.804-1.671 2.026-1.246.618-6.801 2.39-7.037 2.465C15.206 20.383 15.129 20.395 15.054 20.395zM3.786 19.315c-1.332 0-2.222-.597-2.838-1.01-.291-.196-1.06-.711-.936-1.505.16-1.018 1.434-1.385 4.512-2.271.69-.199 1.459-.42 2.3-.674.398-.123.815.105.935.501.12.396-.104.815-.501.935-.848.256-1.623.479-2.318.68-1.295.373-2.627.756-3.225 1.042.01.006.02.013.03.02.652.438 1.346.909 2.476.752 1.016-.138 3.009-.667 3.028-.672.409-.109.812.132.918.531.106.4-.131.812-.531.918-.086.022-2.104.559-3.214.709C4.199 19.302 3.987 19.315 3.786 19.315z"/></svg>