<?xml version="1.0" encoding="UTF-8"?><svg xmlns="http://www.w3.org/2000/svg" xmlns:xlink="http://www.w3.org/1999/xlink" version="1.1" id="Layer_1" x="0px" y="0px" viewBox="0 0 40 40" xml:space="preserve"><path d="M20 38.5c-4.395-.001-10.279-.106-12.53-.298-3.679-.324-3.795-4.391-3.917-8.696-.016-.533-.03-1.062-.053-1.58 0-2.354.233-5.083.608-7.1.715-3.026 2.36-3.078 5.348-3.172.447-.014.916-.029 1.403-.056l.557-.01a348.288 348.288 0 0 1 8.693-.088c4.602 0 7.313.062 8.475.088.307.007.5.011.584.011.46.026.929.041 1.376.055 2.987.094 4.633.146 5.353 3.195.37 1.993.604 4.722.604 7.098-.022.496-.037 1.025-.053 1.558-.122 4.305-.238 8.372-3.918 8.696-2.251.193-8.135.298-12.53.299z" fill-rule="evenodd" clip-rule="evenodd" fill="#F78F8F"/><path d="M19.886 18H19.937l.076.001.05-.001h.044a346.908 346.908 0 0 1 9.031.1c.482.026.946.041 1.389.055 2.918.092 4.25.133 4.872 2.764.37 1.99.6 4.684.601 6.986a99.175 99.175 0 0 0-.053 1.589c-.137 4.787-.452 7.945-3.46 8.21-2.237.191-8.103.295-12.487.296-4.384-.001-10.251-.105-12.485-.296-3.011-.266-3.326-3.423-3.463-8.21A88.756 88.756 0 0 0 4 27.948c0-2.346.23-5.039.591-6.983.631-2.677 1.963-2.719 4.882-2.81.443-.014.907-.029 1.389-.055l.566-.011c1.169-.027 3.907-.089 8.458-.089m.216-1l-.102.001-.102-.001c-5.772 0-8.671.1-9.066.1-3.711.204-6.286-.3-7.214 3.635C3.205 22.953 3 25.78 3 27.948c.205 4.698-.204 10.343 4.427 10.752 2.364.202 8.499.299 12.573.3 4.074-.001 10.209-.098 12.573-.3 4.631-.408 4.222-6.054 4.427-10.752 0-2.168-.205-4.994-.617-7.212-.928-3.936-3.503-3.432-7.214-3.635-.396-.001-3.295-.101-9.067-.101z" fill="#C74343"/><path d="M19 35h-2v-1.375c-.25.375-.875 1.374-2.209 1.375-.666 0-1.791-.5-1.791-2v-9h2v8.625c0 .23.018.632.75.625.813-.008 1.25-1 1.25-1V24h2v11z" fill="#FFF"/><path fill="#FFF" d="M12 23h-2v12H8V23H6v-2h6z"/><path d="M27 26.56c0-.863-.273-1.448-.622-1.889-.346-.441-.856-.671-1.505-.671-.325 0-.649.09-.973.255a2.34 2.34 0 0 0-.9.805V21h-2v14h2v-1.375c.386.451.949 1.386 2 1.375 1.5 0 2-1.375 2-2.5v-5.94zm-2 5.463c0 .552-.448.977-1 .977s-.991-.212-1-.5v-5.94c.009-.503.448-1 1-1s1 .439 1 1.44v5.023z" fill="#FFF"/><path d="M34 30v-3.116c0-.998-.5-2.884-3-2.884-2.375 0-2.997 1.98-2.997 2.884v4.708c0 1.023.278 1.813.808 2.392.535.579 1.276.858 2.227.858 1.038 0 1.83-.258 2.338-.815.536-.533.624-1.342.624-2.435V31h-2v.5c0 .603-.059 1.066-.199 1.231-.138.184-.395.265-.801.269-.367.004-.646-.098-.784-.328-.141-.209-.216-.569-.216-1.126V30h4zm-4-3c.009-.537.448-1 1-1s1 .385 1 1v1h-2v-1z" fill="#FFF"/><path fill="#36404D" d="M15 1l-2 5.6L11 1H9l3 8.4V15h2V9.4L17 1z"/><path d="M28 4.5v7.75s-.437.992-1.25 1c-.732.007-.75-.395-.75-.625V4.5h-2V13c0 1.5 1.125 2 1.791 2 1.334 0 1.959-1 2.209-1.375v1.25h2V4.5h-2z" fill="#36404D"/><path d="M19.75 15c-1.654 0-3-1.374-3-3.063v-4.5c0-1.688 1.346-3.063 3-3.063s3 1.374 3 3.063v4.5c0 1.689-1.346 3.063-3 3.063zm0-8.75c-.552 0-1 .495-1 1.104v4.667c0 .609.448 1.104 1 1.104s1-.495 1-1.104V7.354c0-.609-.448-1.104-1-1.104z" fill="#36404D"/><metadata><rdf:RDF xmlns:rdf="http://www.w3.org/1999/02/22-rdf-syntax-ns#" xmlns:rdfs="http://www.w3.org/2000/01/rdf-schema#" xmlns:dc="http://purl.org/dc/elements/1.1/"><rdf:Description about="https://iconscout.com/legal#licenses" dc:title="youtube" dc:description="youtube" dc:publisher="Iconscout" dc:date="2018-01-02" dc:format="image/svg+xml" dc:language="en"><dc:creator><rdf:Bag><rdf:li>Icons8</rdf:li></rdf:Bag></dc:creator></rdf:Description></rdf:RDF></metadata></svg>